# xmcd
#
# Track frame offsets:
#       150
#       16428
#       31585
#       44965
#       64328
#
# Disc length: 1096 seconds
#
# Revision: 0
# Processed by: cddbd v1.5.2PL0 Copyright (c) Steve Scherf et al.
# Submitted via: WaveLab 4.01
#
DISCID=40044605
DTITLE=The BackRoaders - Hell of a blues
DYEAR=2010
DGENRE=Blues-Rock
TTITLE0=1- Green River
TTITLE1=2- Born under a bad sign
TTITLE2=3- Badge
TTITLE3=4- Cold Shot
TTITLE4=5- Red house
EXTD=
EXTT0=
EXTT1=
EXTT2=
EXTT3=
EXTT4=
PLAYORDER=
